<svg width="200" height="200" viewBox="0 0 200 200" fill="none" xmlns="http://www.w3.org/2000/svg">
  <path d="M20 40C31.0457 40 40 31.0457 40 20C40 8.9543 31.0457 0 20 0C8.9543 0 0 8.9543 0 20C0 31.0457 8.9543 40 20 40Z" fill="currentColor"/>
  <path d="M180 40C191.046 40 200 31.0457 200 20C200 8.9543 191.046 0 180 0C168.954 0 160 8.9543 160 20C160 31.0457 168.954 40 180 40Z" fill="currentColor"/>
  <path d="M20 200C31.0457 200 40 191.046 40 180C40 168.954 31.0457 160 20 160C8.9543 160 0 168.954 0 180C0 191.046 8.9543 200 20 200Z" fill="currentColor"/>
  <path d="M180 200C191.046 200 200 191.046 200 180C200 168.954 191.046 160 180 160C168.954 160 160 168.954 160 180C160 191.046 168.954 200 180 200Z" fill="currentColor"/>
  <path d="M100 120C111.046 120 120 111.046 120 100C120 88.9543 111.046 80 100 80C88.9543 80 80 88.9543 80 100C80 111.046 88.9543 120 100 120Z" fill="currentColor"/>
</svg> 