<svg width="512" height="512" viewBox="0 0 512 512" fill="none" xmlns="http://www.w3.org/2000/svg">
<g clip-path="url(#clip0_20_2)">
<path d="M507.299 179.165C490.655 177.003 469.58 173.599 454.341 166.735C451.747 165.6 448.613 166.681 447.316 169.275C436.508 190.674 422.728 210.669 405.112 230.231C414.623 250.658 419.81 273.03 419.81 296.105C419.81 327.123 410.461 356.952 393.602 382.405C408.463 380.351 421.649 375.218 431.7 367.221C450.363 352.422 452.883 335.294 452.883 314.154C453.253 256.531 461.905 216.644 509.3 189.217C513.808 186.534 512.352 179.871 507.299 179.165Z" fill="#D6C7A1"/>
<path d="M341.67 172.95C340.752 172.355 339.725 172.086 338.644 172.086H166.476C165.395 172.086 164.368 172.356 163.45 172.95C148.396 182.967 135.561 195.309 125.219 209.234C105.891 204.277 97.268 176.189 57.912 181.759C15.094 187.817 -6.90101 242.109 1.92799 277.245C14.342 326.494 78.839 352.489 124.342 381.863C134.826 396.26 147.979 408.984 163.45 419.259C164.368 419.854 165.395 420.178 166.476 420.178H338.644C339.725 420.178 340.752 419.854 341.67 419.259C383.82 391.267 409.003 345.225 409.003 296.104C409.002 247.038 383.82 200.997 341.67 172.95ZM75.582 314.64C56.02 301.833 37.754 286.756 33.377 269.301C28.965 251.882 40.516 213.587 66.395 213.587C78.408 213.587 82.361 219.965 90.117 226.069C79.904 248.009 74.555 272.111 74.555 296.049C74.556 302.266 74.879 308.48 75.582 314.64ZM350.478 426.339C347.185 428.662 344.126 430.986 338.643 430.986H166.475C160.799 430.986 157.613 428.32 154.64 426.339L147.129 441.361C145.314 445.115 148.028 449.197 151.939 449.197H353.18C357.313 449.197 359.779 444.83 357.99 441.361L350.478 426.339ZM356.855 145.661H348.988C344.865 121.437 313.219 102.363 271.171 97.981C273.602 94.361 275.061 89.984 275.061 85.336C275.061 72.907 264.956 62.802 252.58 62.802C240.205 62.802 230.099 72.907 230.099 85.336C230.099 89.984 231.558 94.361 233.989 97.981C191.943 102.362 160.295 121.437 156.172 145.661H148.261C142.545 145.661 140.77 153.529 146.046 155.982C147.835 156.523 155.044 161.278 166.473 161.278H338.641C350.086 161.278 357.475 156.464 359.068 155.982C364.421 153.495 362.621 145.661 356.855 145.661Z" fill="#333333"/>
</g>
<defs>
<clipPath id="clip0_20_2">
<rect width="512" height="512" fill="white"/>
</clipPath>
</defs>
</svg>
